<svg width="445" height="136" viewBox="0 0 445 136" fill="none" xmlns="http://www.w3.org/2000/svg">
<path d="M175.431 40.1719C175.081 45.1819 174.601 50.1719 174.191 55.1719C173.621 62.0019 173.051 68.8319 172.511 75.6619C171.931 82.8819 171.341 90.1119 170.841 97.3419C170.451 102.832 170.251 108.332 169.851 113.822C169.481 118.962 165.681 122.032 159.591 122.202C154.071 122.352 148.601 121.582 143.131 121.062C136.021 120.382 128.941 119.362 121.861 118.352C116.441 117.582 110.961 118.272 105.601 117.062C104.711 116.852 103.921 117.092 103.081 117.432C97.301 119.732 91.451 119.832 85.721 117.432C84.091 116.752 82.771 117.282 81.331 117.472C70.861 118.852 60.421 119.462 49.931 120.622C43.131 121.382 36.311 122.232 29.441 122.192C26.871 122.182 24.361 121.632 22.201 120.142C20.041 118.652 18.951 116.462 18.781 113.902C18.391 108.092 18.201 102.272 17.771 96.4619C17.091 87.2519 16.271 78.0419 15.501 68.8419C15.191 65.1119 14.751 61.3819 14.571 57.6519C14.181 49.2019 12.961 40.8119 13.001 32.3519C13.021 29.7019 13.491 27.1119 13.831 24.5019C14.191 21.6819 15.911 20.4819 18.311 19.5419C18.72 19.3839 19.131 19.2469 19.543 19.1279C20.681 18.7989 21.611 20.0379 21.016 21.0619C20.991 21.1049 20.966 21.1489 20.941 21.1929L20.681 21.6629C20.321 22.2929 19.981 22.8929 19.611 23.4129C18.861 24.4929 18.541 25.7129 18.631 27.1529C18.731 28.5929 18.821 30.0229 18.921 31.4629C19.161 35.2229 19.421 39.1029 19.731 42.9429C20.021 46.5929 20.351 50.3029 20.681 53.8929C20.951 56.9029 21.221 59.9129 21.471 62.9229C21.741 66.1229 21.981 69.3229 22.231 72.5329C22.491 75.8629 22.751 79.3029 23.041 82.6929C23.341 86.2229 23.651 89.7629 23.971 93.2929C24.411 98.2329 24.861 103.343 25.261 108.353C25.651 113.313 29.421 116.913 34.211 116.913C34.581 116.913 34.961 116.893 35.341 116.843C39.511 116.343 43.701 115.723 47.761 115.113C54.791 114.073 62.071 112.983 69.241 112.563C71.251 112.443 73.301 112.383 75.351 112.383C79.241 112.383 83.171 112.583 87.361 113.013C88.121 113.093 88.931 113.273 89.781 113.463C91.111 113.763 92.631 114.103 94.281 114.103C95.151 114.103 95.961 114.013 96.771 113.833C101.621 112.733 106.861 112.183 112.331 112.183C113.961 112.183 115.651 112.233 117.341 112.333C125.611 112.803 134.001 114.033 142.101 115.233C145.631 115.753 149.271 116.293 152.871 116.763C153.331 116.823 153.811 116.853 154.271 116.853C159.261 116.853 163.131 113.253 163.481 108.283C163.541 107.363 163.581 106.443 163.611 105.553C163.651 104.523 163.691 103.553 163.761 102.583C164.151 97.8629 164.551 93.1429 164.951 88.4229C165.181 85.7729 165.411 83.1229 165.631 80.4729C165.771 78.7729 165.911 77.0829 166.041 75.3829C166.251 72.8729 166.451 70.3729 166.671 67.8729C166.921 64.9829 167.191 62.1029 167.451 59.2129C167.801 55.4229 168.161 51.5029 168.491 47.6429C168.971 42.0729 169.411 36.2929 169.821 30.4429C169.841 30.1329 169.881 29.8229 169.911 29.5029C170.091 27.9929 170.321 25.9129 169.221 23.8729C168.712 22.9339 168.191 22.0319 167.654 21.1679C167.036 20.1749 167.965 18.9509 169.101 19.2289C169.512 19.3299 169.923 19.4379 170.331 19.5519C173.001 20.3119 174.561 21.9119 175.011 24.6519C175.85 29.8019 175.79 34.9919 175.431 40.1719Z" fill="#D4E8DB"/>
<path d="M94.2089 23.8009C101.739 16.7749 110.885 13.4989 120.808 11.8729C134.031 9.70686 146.751 11.9159 159.281 16.0479C160.021 16.2919 160.52 16.7429 160.998 17.2709C163.204 19.7069 165.027 22.4249 166.584 25.2999C167.414 26.8329 166.939 28.5869 166.826 30.2309C166.43 35.9509 165.993 41.6688 165.506 47.3829C164.931 54.1249 164.276 60.8609 163.681 67.6019C163.31 71.8059 162.993 76.0149 162.639 80.2209C162.019 87.5939 161.377 94.9648 160.776 102.339C160.621 104.245 160.619 106.164 160.486 108.073C160.218 111.926 157.093 114.289 153.257 113.787C141.352 112.229 129.523 110.013 117.515 109.331C110.329 108.923 103.146 109.318 96.1159 110.9C93.1009 111.579 90.4719 110.318 87.6719 110.031C81.4659 109.394 75.3109 109.189 69.0659 109.561C57.5989 110.244 46.3539 112.503 34.9869 113.865C31.4149 114.293 28.5389 111.747 28.2519 108.119C27.5739 99.5538 26.7509 90.9998 26.0299 82.4389C25.4749 75.8529 25.0119 69.2598 24.4619 62.6739C23.9059 56.0119 23.2539 49.3589 22.7179 42.6959C22.2959 37.4519 21.9829 32.1999 21.6289 26.9509C21.5859 26.3069 21.6679 25.7079 22.0699 25.1359C22.6179 24.3569 23.0729 23.5119 23.5479 22.6829C25.9279 18.5319 29.1379 15.7759 34.0319 14.5389C42.0889 12.5029 50.1529 10.7569 58.4779 11.0279C69.6019 11.3899 80.2539 13.6349 89.7099 19.9719C91.3809 21.0939 92.9019 22.3579 94.2089 23.8009ZM95.3089 109.04C96.3189 109.381 96.9219 109.183 97.5499 109.052C102.465 108.026 107.401 107.314 112.455 107.312C116.06 107.311 119.636 107.62 123.209 107.893C128.284 108.28 133.339 108.956 138.392 109.591C143.52 110.236 148.62 111.126 153.76 111.635C157.425 111.998 159.114 110.138 159.3 106.477C159.571 101.146 159.946 95.8199 160.336 90.4959C160.918 82.5519 161.571 74.6139 162.158 66.6699C162.557 61.2629 162.844 55.8479 163.272 50.4439C163.812 43.6139 164.286 36.7719 165.112 29.9749C165.452 27.1799 164.483 25.2339 162.967 23.1149C160.226 19.2829 156.946 16.6749 152.159 15.5989C143.333 13.6149 134.568 12.3359 125.452 13.2199C115.55 14.1809 106.487 16.9959 98.4589 22.9519C94.3799 25.9779 94.3209 25.9889 90.2709 23.0029C82.1599 17.0229 73.0379 14.1629 63.0419 13.2109C52.9369 12.2489 43.2529 13.7479 33.6129 16.4769C28.3619 17.9639 26.4019 22.6439 23.4699 26.3989C23.2449 26.6879 23.4349 27.3209 23.4699 27.7909C24.1339 36.6129 24.7399 45.4409 25.4989 54.2549C25.8959 58.8639 26.1809 63.4749 26.4729 68.0899C26.9949 76.3609 27.6919 84.6199 28.3069 92.8849C28.6499 97.4929 28.8799 102.113 29.3389 106.709C29.6929 110.248 31.4549 112.228 35.1459 111.678C38.5249 111.174 41.9059 110.687 45.2899 110.218C53.0999 109.137 60.9249 108.244 68.7959 107.684C74.6269 107.269 80.3889 107.223 86.1869 108.142C88.4369 108.499 90.6779 109.402 93.1289 109.115C92.8249 107.831 92.1139 107.086 91.3919 106.35C86.5249 101.395 80.3429 99.4229 73.6739 99.2689C63.4439 99.0319 53.4799 101.267 43.5239 103.332C40.0469 104.053 36.3939 104.442 34.3919 108.058C34.2419 108.329 33.7329 108.401 33.3839 108.569C32.6519 107.269 33.6849 106.54 34.1029 105.663C34.5119 104.806 35.5489 103.864 35.3829 103.186C34.6489 100.185 35.4169 97.1908 35.1229 94.2228C34.6779 89.7278 34.0579 85.2499 33.6109 80.7539C32.9029 73.6349 32.3789 66.4969 31.5919 59.3869C30.4289 48.8839 29.0469 38.4009 29.2179 27.8039C29.2369 26.6099 28.3209 24.5219 30.1449 24.4829C31.5929 24.4519 30.9889 26.5849 30.9959 27.7199C31.0599 37.7749 31.6179 47.8089 32.7119 57.7919C33.9259 68.8699 34.6359 79.9809 35.5329 91.0808C35.8559 95.0779 36.3099 99.0899 37.2309 102.975C38.1099 103.161 38.7859 102.967 39.4889 102.818C50.1159 100.556 60.6969 97.9859 71.6339 97.6559C80.7119 97.3819 88.5779 99.9399 94.3239 107.363C99.1389 101.08 105.72 98.1308 113.614 97.7228C122.613 97.2568 131.317 99.2249 140.059 100.859C143.83 101.564 147.572 102.428 151.814 103.323C153.992 76.7309 157.106 50.6189 157.92 24.1609C159.809 24.4869 159.575 25.7079 159.674 26.7649C159.995 30.2079 159.395 33.6169 159.217 37.0339C158.906 42.9899 158.268 48.9299 157.689 54.8699C157.149 60.4049 156.515 65.9299 155.909 71.4579C155.476 75.4009 154.911 79.3329 154.605 83.2849C154.262 87.7169 153.289 92.0938 153.499 96.5758C153.581 98.3298 153.726 100.136 153.402 101.835C153.164 103.083 153.475 103.902 154.028 104.907C154.62 105.983 155.95 106.888 155.331 108.439C154.23 108.456 153.808 107.696 153.406 107.044C152.316 105.279 150.632 104.507 148.726 104.108C139.801 102.24 130.893 100.385 121.773 99.5288C115.849 98.9728 110.184 99.2518 104.669 101.455C100.847 102.984 97.5039 105.15 95.3089 109.04Z" fill="#B9DAC7"/>
<path d="M112.7 60.3019C112.59 60.8619 112.2 61.1319 111.71 61.2119C106.98 62.0119 103.68 65.0319 100.97 68.6219C98.49 71.9019 96.17 75.3619 95.46 79.6019C95.35 80.2619 95.43 81.3619 94.41 81.4219C93.1 81.4819 93.36 80.1419 93.21 79.4819C91.91 73.6519 88.53 69.0919 84.43 64.9919C82.62 63.1619 80.3 62.0519 77.81 61.3519C77.13 61.1619 76.37 61.2119 75.98 60.4019C76.1 59.6419 76.69 59.5119 77.34 59.3619C81.13 58.4819 84.14 56.3819 86.57 53.3819C89.6 49.6519 92.32 45.7819 93.28 40.9219C93.38 40.3919 93.13 39.0719 94.4 39.2019C95.43 39.3119 95.32 40.3619 95.47 41.0319C96.9 47.2519 100.48 52.1219 105.11 56.3119C106.78 57.8219 108.84 58.7019 111 59.3019C111.681 59.4819 112.46 59.4219 112.7 60.3019Z" fill="#D4E8DB"/>
<path d="M191.235 75V53.9091H198.608C200.077 53.9091 201.289 54.1631 202.244 54.6712C203.198 55.1723 203.908 55.8486 204.375 56.6999C204.842 57.5444 205.076 58.4815 205.076 59.5114C205.076 60.4176 204.914 61.166 204.592 61.7564C204.276 62.3468 203.857 62.8137 203.335 63.157C202.82 63.5002 202.261 63.7543 201.657 63.919V64.125C202.302 64.1662 202.951 64.3928 203.603 64.8047C204.255 65.2166 204.801 65.8071 205.24 66.576C205.68 67.3449 205.899 68.2855 205.899 69.3977C205.899 70.455 205.659 71.4059 205.179 72.2504C204.698 73.0948 203.939 73.7642 202.903 74.2585C201.866 74.7528 200.517 75 198.855 75H191.235ZM193.789 72.7344H198.855C200.524 72.7344 201.708 72.4117 202.408 71.7663C203.115 71.1141 203.469 70.3246 203.469 69.3977C203.469 68.6837 203.287 68.0246 202.923 67.4205C202.559 66.8094 202.041 66.322 201.368 65.9581C200.695 65.5874 199.899 65.402 198.979 65.402H193.789V72.7344ZM193.789 63.1776H198.526C199.295 63.1776 199.988 63.0265 200.606 62.7244C201.231 62.4223 201.725 61.9967 202.089 61.4474C202.46 60.8982 202.645 60.2528 202.645 59.5114C202.645 58.5845 202.322 57.7984 201.677 57.1531C201.032 56.5008 200.009 56.1747 198.608 56.1747H193.789V63.1776ZM228.921 75.3707C227.919 75.3707 227.009 75.1819 226.192 74.8043C225.375 74.4199 224.726 73.8672 224.246 73.1463C223.765 72.4186 223.525 71.5398 223.525 70.5099C223.525 69.6037 223.703 68.8691 224.06 68.3061C224.417 67.7363 224.895 67.29 225.492 66.9673C226.089 66.6446 226.748 66.4044 227.469 66.2464C228.197 66.0817 228.928 65.9512 229.663 65.8551C230.624 65.7315 231.403 65.6388 232 65.5771C232.605 65.5084 233.044 65.3951 233.319 65.2372C233.6 65.0793 233.741 64.8047 233.741 64.4134V64.331C233.741 63.3149 233.463 62.5253 232.907 61.9624C232.357 61.3994 231.523 61.1179 230.404 61.1179C229.244 61.1179 228.334 61.3719 227.675 61.88C227.016 62.388 226.553 62.9304 226.285 63.5071L223.978 62.6832C224.39 61.7221 224.939 60.9737 225.626 60.4382C226.319 59.8958 227.074 59.5182 227.891 59.3054C228.715 59.0857 229.525 58.9759 230.322 58.9759C230.83 58.9759 231.413 59.0376 232.073 59.1612C232.738 59.2779 233.38 59.5217 233.998 59.8924C234.623 60.2631 235.141 60.8227 235.553 61.571C235.965 62.3194 236.171 63.3217 236.171 64.5781V75H233.741V72.858H233.617C233.453 73.2012 233.178 73.5685 232.793 73.9599C232.409 74.3512 231.897 74.6842 231.259 74.9588C230.62 75.2334 229.841 75.3707 228.921 75.3707ZM229.292 73.1875C230.253 73.1875 231.063 72.9987 231.722 72.6211C232.388 72.2435 232.89 71.756 233.226 71.1587C233.569 70.5614 233.741 69.9332 233.741 69.2741V67.0497C233.638 67.1733 233.411 67.2866 233.061 67.3896C232.718 67.4857 232.32 67.5715 231.867 67.647C231.42 67.7157 230.984 67.7775 230.559 67.8324C230.14 67.8804 229.8 67.9216 229.539 67.956C228.908 68.0384 228.317 68.1722 227.768 68.3576C227.225 68.5361 226.786 68.8073 226.45 69.1712C226.12 69.5282 225.955 70.0156 225.955 70.6335C225.955 71.478 226.268 72.1165 226.892 72.549C227.524 72.9747 228.324 73.1875 229.292 73.1875ZM253.707 75V72.7344H254.283C254.757 72.7344 255.152 72.6417 255.468 72.4563C255.783 72.2641 256.038 71.9311 256.23 71.4574C256.429 70.9768 256.58 70.3108 256.683 69.4595C256.793 68.6013 256.872 67.5097 256.92 66.1847L257.208 59.1818H267.754V75H265.323V61.4474H259.515L259.268 67.0909C259.213 68.3885 259.096 69.5316 258.918 70.5202C258.746 71.502 258.482 72.3259 258.125 72.9918C257.775 73.6578 257.308 74.159 256.724 74.4954C256.141 74.8318 255.409 75 254.531 75H253.707ZM293.345 75.3295C291.821 75.3295 290.506 74.9931 289.401 74.3203C288.302 73.6406 287.454 72.6932 286.857 71.478C286.266 70.2559 285.971 68.8348 285.971 67.2145C285.971 65.5942 286.266 64.1662 286.857 62.9304C287.454 61.6877 288.285 60.7197 289.349 60.0263C290.42 59.326 291.67 58.9759 293.098 58.9759C293.922 58.9759 294.735 59.1132 295.538 59.3878C296.342 59.6624 297.073 60.1087 297.732 60.7266C298.391 61.3376 298.916 62.1477 299.308 63.157C299.699 64.1662 299.895 65.4089 299.895 66.8849V67.9148H287.701V65.8139H297.423C297.423 64.9214 297.244 64.125 296.887 63.4247C296.537 62.7244 296.036 62.1718 295.384 61.7667C294.739 61.3616 293.976 61.1591 293.098 61.1591C292.13 61.1591 291.292 61.3994 290.585 61.88C289.885 62.3537 289.346 62.9716 288.968 63.7337C288.59 64.4957 288.402 65.3127 288.402 66.1847V67.5852C288.402 68.7798 288.608 69.7925 289.02 70.6232C289.438 71.4471 290.018 72.0753 290.76 72.5078C291.501 72.9335 292.363 73.1463 293.345 73.1463C293.983 73.1463 294.56 73.0571 295.075 72.8786C295.597 72.6932 296.046 72.4186 296.424 72.0547C296.802 71.6839 297.093 71.224 297.299 70.6747L299.647 71.3338C299.4 72.1302 298.985 72.8305 298.401 73.4347C297.818 74.032 297.097 74.4988 296.239 74.8352C295.38 75.1648 294.416 75.3295 293.345 75.3295ZM316.678 75L323.104 66.9673L316.761 59.1818H319.644L324.917 65.9375H326.235V59.1818H328.665V65.9375H329.942L335.215 59.1818H338.099L331.796 66.9673L338.181 75H335.256L329.901 68.2031H328.665V75H326.235V68.2031H324.999L319.603 75H316.678ZM358.585 71.4162L366.205 59.1818H369.006V75H366.576V62.7656L358.996 75H356.154V59.1818H358.585V71.4162ZM398.544 65.9787V68.2443H389.812V65.9787H398.544ZM390.388 59.1818V75H387.958V59.1818H390.388ZM400.398 59.1818V75H397.968V59.1818H400.398ZM423.992 75.3707C422.989 75.3707 422.08 75.1819 421.263 74.8043C420.446 74.4199 419.797 73.8672 419.316 73.1463C418.836 72.4186 418.595 71.5398 418.595 70.5099C418.595 69.6037 418.774 68.8691 419.131 68.3061C419.488 67.7363 419.965 67.29 420.562 66.9673C421.16 66.6446 421.819 66.4044 422.54 66.2464C423.267 66.0817 423.998 65.9512 424.733 65.8551C425.694 65.7315 426.473 65.6388 427.071 65.5771C427.675 65.5084 428.114 65.3951 428.389 65.2372C428.67 65.0793 428.811 64.8047 428.811 64.4134V64.331C428.811 63.3149 428.533 62.5253 427.977 61.9624C427.428 61.3994 426.594 61.1179 425.475 61.1179C424.314 61.1179 423.405 61.3719 422.745 61.88C422.086 62.388 421.623 62.9304 421.355 63.5071L419.048 62.6832C419.46 61.7221 420.01 60.9737 420.696 60.4382C421.39 59.8958 422.145 59.5182 422.962 59.3054C423.786 59.0857 424.596 58.9759 425.392 58.9759C425.9 58.9759 426.484 59.0376 427.143 59.1612C427.809 59.2779 428.451 59.5217 429.069 59.8924C429.693 60.2631 430.212 60.8227 430.624 61.571C431.036 62.3194 431.242 63.3217 431.242 64.5781V75H428.811V72.858H428.688C428.523 73.2012 428.248 73.5685 427.864 73.9599C427.479 74.3512 426.968 74.6842 426.329 74.9588C425.691 75.2334 424.912 75.3707 423.992 75.3707ZM424.362 73.1875C425.323 73.1875 426.134 72.9987 426.793 72.6211C427.459 72.2435 427.96 71.756 428.296 71.1587C428.64 70.5614 428.811 69.9332 428.811 69.2741V67.0497C428.708 67.1733 428.482 67.2866 428.131 67.3896C427.788 67.4857 427.39 67.5715 426.937 67.647C426.491 67.7157 426.055 67.7775 425.629 67.8324C425.21 67.8804 424.87 67.9216 424.609 67.956C423.978 68.0384 423.387 68.1722 422.838 68.3576C422.296 68.5361 421.856 68.8073 421.52 69.1712C421.19 69.5282 421.026 70.0156 421.026 70.6335C421.026 71.478 421.338 72.1165 421.963 72.549C422.594 72.9747 423.394 73.1875 424.362 73.1875Z" fill="#D4E8DB"/>
<path d="M251.002 85.0909H252.301V93.6776H252.408L258.374 85.0909H259.652V96H258.331V87.4347H258.225L252.28 96H251.002V85.0909ZM263.414 93.9119H264.756C264.785 94.2812 264.951 94.5618 265.257 94.7536C265.566 94.9453 265.967 95.0412 266.461 95.0412C266.965 95.0412 267.396 94.9382 267.755 94.7322C268.114 94.5227 268.293 94.1854 268.293 93.7202C268.293 93.4467 268.226 93.2088 268.091 93.0064C267.956 92.8004 267.766 92.6406 267.521 92.527C267.276 92.4134 266.986 92.3565 266.652 92.3565H265.246V91.2273H266.652C267.153 91.2273 267.522 91.1136 267.76 90.8864C268.002 90.6591 268.123 90.375 268.123 90.0341C268.123 89.6683 267.993 89.3754 267.734 89.1552C267.475 88.9315 267.107 88.8196 266.631 88.8196C266.152 88.8196 265.752 88.9279 265.433 89.1445C265.113 89.3576 264.944 89.6328 264.927 89.9702H263.606C263.62 89.5298 263.755 89.141 264.01 88.8036C264.266 88.4627 264.614 88.1964 265.054 88.0046C265.495 87.8093 265.999 87.7116 266.567 87.7116C267.143 87.7116 267.641 87.8129 268.064 88.0153C268.49 88.2141 268.819 88.4858 269.049 88.8303C269.284 89.1712 269.401 89.5582 269.401 89.9915C269.401 90.4531 269.271 90.826 269.012 91.1101C268.753 91.3942 268.428 91.5966 268.037 91.7173V91.8026C268.346 91.8239 268.614 91.9233 268.842 92.1009C269.073 92.2749 269.252 92.5039 269.38 92.788C269.508 93.0685 269.571 93.3793 269.571 93.7202C269.571 94.2173 269.438 94.6506 269.172 95.0199C268.906 95.3857 268.54 95.6697 268.075 95.8722C267.609 96.071 267.079 96.1705 266.482 96.1705C265.903 96.1705 265.385 96.0763 264.927 95.8881C264.469 95.6964 264.105 95.4318 263.835 95.0945C263.568 94.7536 263.428 94.3594 263.414 93.9119ZM272.264 98.3438V94.8281H272.946C273.112 94.6541 273.256 94.4659 273.377 94.2635C273.498 94.0611 273.602 93.8214 273.691 93.5444C273.784 93.2638 273.862 92.9229 273.926 92.5217C273.99 92.1168 274.046 91.6286 274.096 91.0568L274.373 87.8182H279.572V94.8281H280.829V98.3438H279.572V96H273.521V98.3438H272.264ZM274.373 94.8281H278.315V88.9901H275.545L275.332 91.0568C275.243 91.9126 275.133 92.6602 275.002 93.2994C274.87 93.9386 274.661 94.4482 274.373 94.8281ZM286.705 96.1918C286.187 96.1918 285.716 96.0941 285.294 95.8988C284.871 95.6999 284.536 95.4141 284.287 95.0412C284.038 94.6648 283.914 94.2102 283.914 93.6776C283.914 93.2088 284.006 92.8288 284.191 92.5376C284.376 92.2429 284.623 92.0121 284.932 91.8452C285.24 91.6783 285.581 91.554 285.954 91.4723C286.331 91.3871 286.709 91.3196 287.089 91.2699C287.586 91.206 287.989 91.158 288.298 91.1261C288.61 91.0906 288.838 91.032 288.98 90.9503C289.125 90.8686 289.198 90.7266 289.198 90.5241V90.4815C289.198 89.956 289.054 89.5476 288.767 89.2564C288.483 88.9652 288.051 88.8196 287.472 88.8196C286.872 88.8196 286.402 88.951 286.061 89.2138C285.72 89.4766 285.48 89.7571 285.342 90.0554L284.148 89.6293C284.362 89.1321 284.646 88.745 285.001 88.468C285.359 88.1875 285.75 87.9922 286.173 87.8821C286.599 87.7685 287.018 87.7116 287.43 87.7116C287.693 87.7116 287.994 87.7436 288.335 87.8075C288.68 87.8679 289.012 87.994 289.331 88.1857C289.655 88.3775 289.923 88.6669 290.136 89.054C290.349 89.4411 290.455 89.9595 290.455 90.6094V96H289.198V94.892H289.134C289.049 95.0696 288.907 95.2596 288.708 95.462C288.509 95.6644 288.245 95.8366 287.914 95.9787C287.584 96.1207 287.181 96.1918 286.705 96.1918ZM286.897 95.0625C287.394 95.0625 287.813 94.9648 288.154 94.7695C288.499 94.5742 288.758 94.3221 288.932 94.0131C289.109 93.7042 289.198 93.3793 289.198 93.0384V91.8878C289.145 91.9517 289.028 92.0103 288.847 92.0636C288.669 92.1133 288.463 92.1577 288.229 92.1967C287.998 92.2322 287.772 92.2642 287.552 92.2926C287.336 92.3175 287.16 92.3388 287.025 92.3565C286.698 92.3991 286.393 92.4684 286.109 92.5643C285.828 92.6566 285.601 92.7969 285.427 92.9851C285.256 93.1697 285.171 93.4219 285.171 93.7415C285.171 94.1783 285.333 94.5085 285.656 94.7322C285.983 94.9524 286.396 95.0625 286.897 95.0625ZM293.437 88.9901V87.8182H300.084V88.9901H297.4V96H296.142V88.9901H293.437ZM306.724 96.1705C305.935 96.1705 305.255 95.9964 304.683 95.6484C304.115 95.2969 303.677 94.8068 303.368 94.1783C303.062 93.5462 302.91 92.8111 302.91 91.973C302.91 91.1349 303.062 90.3963 303.368 89.7571C303.677 89.1143 304.106 88.6136 304.657 88.255C305.211 87.8928 305.857 87.7116 306.596 87.7116C307.022 87.7116 307.443 87.7827 307.858 87.9247C308.274 88.0668 308.652 88.2976 308.993 88.6172C309.334 88.9332 309.605 89.3523 309.808 89.8743C310.01 90.3963 310.111 91.0391 310.111 91.8026V92.3352H303.805V91.2486H308.833C308.833 90.7869 308.741 90.375 308.556 90.0128C308.375 89.6506 308.116 89.3647 307.778 89.1552C307.444 88.9457 307.05 88.8409 306.596 88.8409C306.095 88.8409 305.662 88.9652 305.296 89.2138C304.934 89.4588 304.655 89.7784 304.46 90.1726C304.264 90.5668 304.167 90.9893 304.167 91.4403V92.1648C304.167 92.7827 304.273 93.3065 304.486 93.7362C304.703 94.1623 305.003 94.4872 305.387 94.7109C305.77 94.9311 306.216 95.0412 306.724 95.0412C307.054 95.0412 307.352 94.995 307.618 94.9027C307.888 94.8068 308.121 94.6648 308.316 94.4766C308.512 94.2848 308.662 94.0469 308.769 93.7628L309.983 94.1037C309.856 94.5156 309.641 94.8778 309.339 95.1903C309.037 95.4993 308.664 95.7408 308.22 95.9148C307.776 96.0852 307.278 96.1705 306.724 96.1705ZM313.099 96V94.8281H313.397C313.643 94.8281 313.847 94.7802 314.01 94.6843C314.173 94.5849 314.305 94.4126 314.404 94.1676C314.507 93.919 314.585 93.5746 314.639 93.1342C314.695 92.6903 314.736 92.1257 314.761 91.4403L314.91 87.8182H320.365V96H319.108V88.9901H316.103L315.976 91.9091C315.947 92.5803 315.887 93.1715 315.794 93.6829C315.706 94.1907 315.569 94.6168 315.384 94.9613C315.203 95.3058 314.962 95.565 314.66 95.739C314.358 95.913 313.98 96 313.525 96H313.099ZM325.558 90.7798H327.902C328.86 90.7798 329.594 91.0231 330.102 91.5096C330.609 91.9961 330.863 92.6122 330.863 93.358C330.863 93.848 330.75 94.2937 330.522 94.695C330.295 95.0927 329.961 95.4105 329.521 95.6484C329.081 95.8828 328.541 96 327.902 96H324.471V87.8182H325.728V94.8281H327.902C328.399 94.8281 328.807 94.6967 329.127 94.4339C329.446 94.1712 329.606 93.8338 329.606 93.4219C329.606 92.9886 329.446 92.6353 329.127 92.3619C328.807 92.0884 328.399 91.9517 327.902 91.9517H325.558V90.7798ZM337.901 96.1705C337.134 96.1705 336.473 95.9893 335.919 95.6271C335.365 95.2649 334.939 94.766 334.641 94.1303C334.343 93.4947 334.193 92.7685 334.193 91.9517C334.193 91.1207 334.346 90.3874 334.652 89.7518C334.96 89.1126 335.39 88.6136 335.941 88.255C336.495 87.8928 337.141 87.7116 337.879 87.7116C338.455 87.7116 338.973 87.8182 339.435 88.0312C339.897 88.2443 340.275 88.5426 340.569 88.9261C340.864 89.3097 341.047 89.7571 341.118 90.2685H339.861C339.765 89.8956 339.552 89.5653 339.222 89.2777C338.895 88.9865 338.455 88.8409 337.901 88.8409C337.411 88.8409 336.981 88.9687 336.612 89.2244C336.246 89.4766 335.96 89.8335 335.754 90.2951C335.552 90.7532 335.451 91.2912 335.451 91.9091C335.451 92.5412 335.55 93.0916 335.749 93.5604C335.951 94.0291 336.235 94.3931 336.601 94.6523C336.97 94.9116 337.404 95.0412 337.901 95.0412C338.228 95.0412 338.524 94.9844 338.79 94.8707C339.057 94.7571 339.282 94.5938 339.467 94.3807C339.652 94.1676 339.783 93.9119 339.861 93.6136H341.118C341.047 94.0966 340.871 94.5316 340.591 94.9187C340.314 95.3022 339.946 95.6076 339.488 95.8349C339.034 96.0586 338.504 96.1705 337.901 96.1705ZM344.111 88.9901V87.8182H350.759V88.9901H348.074V96H346.817V88.9901H344.111ZM354.393 96V87.8182H357.738C358.619 87.8182 359.318 88.017 359.837 88.4148C360.355 88.8125 360.614 89.3381 360.614 89.9915C360.614 90.4886 360.467 90.8739 360.172 91.1474C359.877 91.4173 359.499 91.6001 359.038 91.696C359.339 91.7386 359.632 91.8452 359.917 92.0156C360.204 92.1861 360.442 92.4205 360.63 92.7188C360.819 93.0135 360.913 93.3757 360.913 93.8054C360.913 94.2244 360.806 94.5991 360.593 94.9293C360.38 95.2596 360.075 95.5206 359.677 95.7124C359.279 95.9041 358.803 96 358.249 96H354.393ZM355.586 94.8494H358.249C358.683 94.8494 359.022 94.7464 359.267 94.5405C359.512 94.3345 359.634 94.054 359.634 93.6989C359.634 93.2763 359.512 92.9442 359.267 92.7028C359.022 92.4577 358.683 92.3352 358.249 92.3352H355.586V94.8494ZM355.586 91.2486H357.738C358.075 91.2486 358.365 91.2024 358.606 91.1101C358.848 91.0142 359.032 90.8793 359.16 90.7053C359.292 90.5277 359.357 90.3182 359.357 90.0767C359.357 89.7322 359.213 89.4624 358.926 89.267C358.638 89.0682 358.242 88.9688 357.738 88.9688H355.586V91.2486ZM367.939 96.1705C367.201 96.1705 366.553 95.9947 365.995 95.6431C365.441 95.2915 365.008 94.7997 364.696 94.1676C364.387 93.5355 364.232 92.7969 364.232 91.9517C364.232 91.0994 364.387 90.3555 364.696 89.7198C365.008 89.0842 365.441 88.5906 365.995 88.239C366.553 87.8874 367.201 87.7116 367.939 87.7116C368.678 87.7116 369.324 87.8874 369.878 88.239C370.436 88.5906 370.869 89.0842 371.178 89.7198C371.491 90.3555 371.647 91.0994 371.647 91.9517C371.647 92.7969 371.491 93.5355 371.178 94.1676C370.869 94.7997 370.436 95.2915 369.878 95.6431C369.324 95.9947 368.678 96.1705 367.939 96.1705ZM367.939 95.0412C368.501 95.0412 368.962 94.8974 369.324 94.6097C369.687 94.3221 369.955 93.9439 370.129 93.4751C370.303 93.0064 370.39 92.4986 370.39 91.9517C370.39 91.4048 370.303 90.8952 370.129 90.4229C369.955 89.9506 369.687 89.5689 369.324 89.2777C368.962 88.9865 368.501 88.8409 367.939 88.8409C367.378 88.8409 366.917 88.9865 366.555 89.2777C366.192 89.5689 365.924 89.9506 365.75 90.4229C365.576 90.8952 365.489 91.4048 365.489 91.9517C365.489 92.4986 365.576 93.0064 365.75 93.4751C365.924 93.9439 366.192 94.3221 366.555 94.6097C366.917 94.8974 367.378 95.0412 367.939 95.0412Z" fill="#B9DAC7"/>
</svg>
